{
    "asset" : {
        "generator" : "Khronos glTF Blender I/O v3.4.50",
        "version" : "2.0"
    },
    "extensionsUsed" : [
        "KHR_materials_specular",
        "KHR_materials_ior"
    ],
    "scene" : 0,
    "scenes" : [
        {
            "name" : "Scene",
            "nodes" : [
                0
            ]
        }
    ],
    "nodes" : [
        {
            "extras" : {
                "sparkar_optimization" : {
                    "InvertedReducePercentage" : 0.0
                },
                "spark_blender_addon" : 1
            },
            "mesh" : 0,
            "name" : "BezierCurve.002"
        }
    ],
    "materials" : [
        {
            "doubleSided" : true,
            "extensions" : {
                "KHR_materials_specular" : {
                    "specularColorFactor" : [
                        1.685819774307087,
                        1.685819774307087,
                        1.685819774307087
                    ]
                },
                "KHR_materials_ior" : {
                    "ior" : 1.4500000476837158
                }
            },
            "name" : "Material.001",
            "pbrMetallicRoughness" : {
                "roughnessFactor" : 0.12545453011989594
            }
        }
    ],
    "meshes" : [
        {
            "name" : "BezierCurve.004",
            "primitives" : [
                {
                    "attributes" : {
                        "POSITION" : 0,
                        "NORMAL" : 1
                    },
                    "indices" : 2,
                    "material" : 0
                }
            ]
        }
    ],
    "accessors" : [
        {
            "bufferView" : 0,
            "componentType" : 5126,
            "count" : 14901,
            "max" : [
                1.4566432237625122,
                0.3453131318092346,
                1.0607820749282837
            ],
            "min" : [
                -1.4565023183822632,
                -0.4087953567504883,
                -1.6058259010314941
            ],
            "type" : "VEC3"
        },
        {
            "bufferView" : 1,
            "componentType" : 5126,
            "count" : 14901,
            "type" : "VEC3"
        },
        {
            "bufferView" : 2,
            "componentType" : 5123,
            "count" : 87606,
            "type" : "SCALAR"
        }
    ],
    "bufferViews" : [
        {
            "buffer" : 0,
            "byteLength" : 178812,
            "byteOffset" : 0,
            "target" : 34962
        },
        {
            "buffer" : 0,
            "byteLength" : 178812,
            "byteOffset" : 178812,
            "target" : 34962
        },
        {
            "buffer" : 0,
            "byteLength" : 175212,
            "byteOffset" : 357624,
            "target" : 34963
        }
    ],
    "buffers" : [
        {
            "byteLength" : 532836,
            "uri" : "data:application/octet-stream;base64,"
        }
    ]
}
